<svg id="visual" viewBox="0 0 900 600" width="900" height="600" xmlns="http://www.w3.org/2000/svg" xmlns:xlink="http://www.w3.org/1999/xlink" version="1.1"><g stroke-width="1" stroke-linejoin="bevel"><path d="M413 292L433 363L531 313Z" fill="#722821" stroke="#722821"></path><path d="M531 313L493 218L413 292Z" fill="#cf7422" stroke="#cf7422"></path><path d="M531 313L571 282L493 218Z" fill="#f1a511" stroke="#f1a511"></path><path d="M433 363L503 435L531 313Z" fill="#fdc000" stroke="#fdc000"></path><path d="M531 313L597 410L571 282Z" fill="#e18c1c" stroke="#e18c1c"></path><path d="M493 218L427 179L413 292Z" fill="#a34a26" stroke="#a34a26"></path><path d="M503 435L597 410L531 313Z" fill="#a34a26" stroke="#a34a26"></path><path d="M274 226L308 339L413 292Z" fill="#8b3825" stroke="#8b3825"></path><path d="M413 292L308 339L433 363Z" fill="#ba5e25" stroke="#ba5e25"></path><path d="M433 363L379 522L503 435Z" fill="#3e0d14" stroke="#3e0d14"></path><path d="M694 292L592 199L571 282Z" fill="#f1a511" stroke="#f1a511"></path><path d="M571 282L592 199L493 218Z" fill="#f1a511" stroke="#f1a511"></path><path d="M493 218L528 111L427 179Z" fill="#ba5e25" stroke="#ba5e25"></path><path d="M379 522L534 500L503 435Z" fill="#a34a26" stroke="#a34a26"></path><path d="M503 435L591 473L597 410Z" fill="#3e0d14" stroke="#3e0d14"></path><path d="M534 500L591 473L503 435Z" fill="#f1a511" stroke="#f1a511"></path><path d="M308 339L330 463L433 363Z" fill="#fdc000" stroke="#fdc000"></path><path d="M308 339L278 402L330 463Z" fill="#e18c1c" stroke="#e18c1c"></path><path d="M592 199L528 111L493 218Z" fill="#e18c1c" stroke="#e18c1c"></path><path d="M285 107L274 226L427 179Z" fill="#fdc000" stroke="#fdc000"></path><path d="M427 179L274 226L413 292Z" fill="#fdc000" stroke="#fdc000"></path><path d="M308 339L202 368L278 402Z" fill="#3e0d14" stroke="#3e0d14"></path><path d="M719 430L694 292L597 410Z" fill="#8b3825" stroke="#8b3825"></path><path d="M597 410L694 292L571 282Z" fill="#722821" stroke="#722821"></path><path d="M592 199L626 72L528 111Z" fill="#8b3825" stroke="#8b3825"></path><path d="M406 600L379 522L271 600Z" fill="#cf7422" stroke="#cf7422"></path><path d="M330 463L379 522L433 363Z" fill="#ba5e25" stroke="#ba5e25"></path><path d="M528 111L404 63L427 179Z" fill="#f1a511" stroke="#f1a511"></path><path d="M705 161L675 139L592 199Z" fill="#581a1c" stroke="#581a1c"></path><path d="M528 111L495 0L404 63Z" fill="#8b3825" stroke="#8b3825"></path><path d="M185 309L202 368L308 339Z" fill="#e18c1c" stroke="#e18c1c"></path><path d="M163 502L271 600L330 463Z" fill="#280006" stroke="#280006"></path><path d="M713 503L719 430L591 473Z" fill="#a34a26" stroke="#a34a26"></path><path d="M591 473L719 430L597 410Z" fill="#a34a26" stroke="#a34a26"></path><path d="M694 292L705 161L592 199Z" fill="#3e0d14" stroke="#3e0d14"></path><path d="M404 63L285 107L427 179Z" fill="#cf7422" stroke="#cf7422"></path><path d="M274 226L185 309L308 339Z" fill="#722821" stroke="#722821"></path><path d="M797 164L705 161L694 292Z" fill="#581a1c" stroke="#581a1c"></path><path d="M193 199L185 309L274 226Z" fill="#cf7422" stroke="#cf7422"></path><path d="M717 0L626 72L675 139Z" fill="#cf7422" stroke="#cf7422"></path><path d="M675 139L626 72L592 199Z" fill="#280006" stroke="#280006"></path><path d="M379 522L510 600L534 500Z" fill="#e18c1c" stroke="#e18c1c"></path><path d="M534 500L612 600L591 473Z" fill="#581a1c" stroke="#581a1c"></path><path d="M271 600L379 522L330 463Z" fill="#a34a26" stroke="#a34a26"></path><path d="M379 522L406 600L510 600Z" fill="#280006" stroke="#280006"></path><path d="M225 129L193 199L274 226Z" fill="#280006" stroke="#280006"></path><path d="M285 107L225 129L274 226Z" fill="#8b3825" stroke="#8b3825"></path><path d="M183 0L225 129L285 107Z" fill="#8b3825" stroke="#8b3825"></path><path d="M612 600L713 503L591 473Z" fill="#fdc000" stroke="#fdc000"></path><path d="M575 0L495 0L528 111Z" fill="#581a1c" stroke="#581a1c"></path><path d="M404 63L294 0L285 107Z" fill="#a34a26" stroke="#a34a26"></path><path d="M495 0L427 0L404 63Z" fill="#8b3825" stroke="#8b3825"></path><path d="M510 600L612 600L534 500Z" fill="#722821" stroke="#722821"></path><path d="M626 72L575 0L528 111Z" fill="#f1a511" stroke="#f1a511"></path><path d="M717 0L575 0L626 72Z" fill="#e18c1c" stroke="#e18c1c"></path><path d="M163 502L330 463L278 402Z" fill="#a34a26" stroke="#a34a26"></path><path d="M817 419L827 303L719 430Z" fill="#fdc000" stroke="#fdc000"></path><path d="M719 430L827 303L694 292Z" fill="#581a1c" stroke="#581a1c"></path><path d="M820 80L717 0L675 139Z" fill="#280006" stroke="#280006"></path><path d="M112 203L113 291L193 199Z" fill="#fdc000" stroke="#fdc000"></path><path d="M193 199L113 291L185 309Z" fill="#3e0d14" stroke="#3e0d14"></path><path d="M185 309L96 386L202 368Z" fill="#8b3825" stroke="#8b3825"></path><path d="M202 368L163 502L278 402Z" fill="#581a1c" stroke="#581a1c"></path><path d="M96 386L163 502L202 368Z" fill="#722821" stroke="#722821"></path><path d="M827 303L797 164L694 292Z" fill="#581a1c" stroke="#581a1c"></path><path d="M427 0L294 0L404 63Z" fill="#cf7422" stroke="#cf7422"></path><path d="M106 125L112 203L193 199Z" fill="#722821" stroke="#722821"></path><path d="M788 517L719 430L713 503Z" fill="#280006" stroke="#280006"></path><path d="M788 517L817 419L719 430Z" fill="#ba5e25" stroke="#ba5e25"></path><path d="M106 125L193 199L225 129Z" fill="#a34a26" stroke="#a34a26"></path><path d="M734 600L788 517L713 503Z" fill="#fdc000" stroke="#fdc000"></path><path d="M113 291L96 386L185 309Z" fill="#722821" stroke="#722821"></path><path d="M0 322L96 386L113 291Z" fill="#fdc000" stroke="#fdc000"></path><path d="M612 600L734 600L713 503Z" fill="#280006" stroke="#280006"></path><path d="M820 80L675 139L705 161Z" fill="#f1a511" stroke="#f1a511"></path><path d="M96 386L92 464L163 502Z" fill="#e18c1c" stroke="#e18c1c"></path><path d="M163 502L179 600L271 600Z" fill="#280006" stroke="#280006"></path><path d="M121 600L179 600L163 502Z" fill="#ba5e25" stroke="#ba5e25"></path><path d="M183 0L106 125L225 129Z" fill="#fdc000" stroke="#fdc000"></path><path d="M0 186L0 322L113 291Z" fill="#8b3825" stroke="#8b3825"></path><path d="M96 386L0 406L92 464Z" fill="#a34a26" stroke="#a34a26"></path><path d="M900 102L820 80L797 164Z" fill="#280006" stroke="#280006"></path><path d="M797 164L820 80L705 161Z" fill="#e18c1c" stroke="#e18c1c"></path><path d="M294 0L183 0L285 107Z" fill="#280006" stroke="#280006"></path><path d="M900 407L900 307L827 303Z" fill="#3e0d14" stroke="#3e0d14"></path><path d="M827 303L900 213L797 164Z" fill="#ba5e25" stroke="#ba5e25"></path><path d="M900 407L827 303L817 419Z" fill="#3e0d14" stroke="#3e0d14"></path><path d="M900 496L900 407L817 419Z" fill="#280006" stroke="#280006"></path><path d="M900 496L817 419L788 517Z" fill="#cf7422" stroke="#cf7422"></path><path d="M900 307L900 213L827 303Z" fill="#a34a26" stroke="#a34a26"></path><path d="M900 0L792 0L820 80Z" fill="#722821" stroke="#722821"></path><path d="M820 80L792 0L717 0Z" fill="#f1a511" stroke="#f1a511"></path><path d="M92 464L121 600L163 502Z" fill="#280006" stroke="#280006"></path><path d="M734 600L819 600L788 517Z" fill="#8b3825" stroke="#8b3825"></path><path d="M819 600L900 496L788 517Z" fill="#fdc000" stroke="#fdc000"></path><path d="M0 186L113 291L112 203Z" fill="#722821" stroke="#722821"></path><path d="M92 464L0 501L121 600Z" fill="#280006" stroke="#280006"></path><path d="M0 322L0 406L96 386Z" fill="#cf7422" stroke="#cf7422"></path><path d="M900 213L900 102L797 164Z" fill="#f1a511" stroke="#f1a511"></path><path d="M0 62L0 186L106 125Z" fill="#722821" stroke="#722821"></path><path d="M106 125L0 186L112 203Z" fill="#280006" stroke="#280006"></path><path d="M183 0L78 0L106 125Z" fill="#581a1c" stroke="#581a1c"></path><path d="M0 406L0 501L92 464Z" fill="#581a1c" stroke="#581a1c"></path><path d="M819 600L900 600L900 496Z" fill="#280006" stroke="#280006"></path><path d="M900 102L900 0L820 80Z" fill="#722821" stroke="#722821"></path><path d="M78 0L0 62L106 125Z" fill="#ba5e25" stroke="#ba5e25"></path><path d="M0 501L0 600L121 600Z" fill="#581a1c" stroke="#581a1c"></path><path d="M78 0L0 0L0 62Z" fill="#fdc000" stroke="#fdc000"></path></g></svg>